<?xml version="1.0" encoding="utf-8"?>
<!-- Generator: Adobe Illustrator 25.0.0, SVG Export Plug-In . SVG Version: 6.00 Build 0)  -->
<svg version="1.1" id="图层_1" xmlns="http://www.w3.org/2000/svg" xmlns:xlink="http://www.w3.org/1999/xlink" x="0px" y="0px"
	 viewBox="0 0 120 60" style="enable-background:new 0 0 120 60;" xml:space="preserve">
<style type="text/css">
	.st0{fill:#B8FE40;}
	.st1{font-family:'AdobeSongStd-Light-GBpc-EUC-H';}
	.st2{font-size:42.3346px;}
</style>
<g>
	<g>
		<path d="M115.21,2.1c-0.61,11.04-1.21,22.08-1.82,33.11c-0.49,8.86-2.4,19.22,2.97,27.01c1.2-2.94,2.39-5.88,3.59-8.81
			c-1.55,0.3-4.13-1.31-5.59-1.65c-2.28-0.54-4.27-0.41-6.57-0.07c2.46,2.46,4.92,4.92,7.38,7.38c5.32-18.92,1.33-38.58,4.84-57.69
			c1.09-5.93-5.37-9.9-10.03-5.84c-1.03,0.9-1.77,1.92-2.39,3.12c-0.29,0.62-0.56,1.26-0.81,1.9c4.24,0.33,5.36-0.4,3.37-2.19
			c-2.17-2.72-6.2-1.84-8.49,0c-0.55,0.21-1.1,0.41-1.65,0.62c-3.19,0.84-4.96,4.26-4.19,7.38c1.2,4.85,2.56,9.84,2.34,14.88
			c-0.2,4.68-2.33,8.77-3.32,13.28c-1.96,8.85-2.32,18.54-2.35,27.58c-0.02,4.43,5.15,7.63,9.03,5.18c3.27-2.07,5.05-4.96,5.53-8.8
			c0.29-2.29-0.45-4.72-0.03-6.96c0.41-2.18,1.8-4.01,2.98-5.83c2.33-3.6,4.52-7.2,3.54-11.69c-0.89-4.03-3.88-7.54-5.6-11.23
			c-2.03-4.37-2.84-8.28-1.34-12.92c1.25-3.85,2.07-7.68-1.1-10.97c-5.46-5.66-16.45-3.04-22.12,0.67
			c-3.26,2.14-3.99,6.53-1.21,9.42c1.44,1.51,3.2,2.44,5.27,2.79c0.35,0.07,0.7,0.14,1.05,0.2c-2-2.11-2.84-2.29-2.54-0.52
			c-0.51,1.07,0.06,3.44,0.07,4.72c0.06,6.35,0,12.77-0.89,19.07c-1.51,10.68-7.78,21.11-0.04,30.74
			c3.15,3.92,10.77,0.78,10.24-4.24c-0.09-0.89-0.19-1.78-0.28-2.68c-0.44-4.23-3.46-6.38-7.6-5.79
			c-28.75,4.14-58.18,4.17-86.94,0.07c0,3.86,0,7.71,0,11.57c33.43-8.14,68.74,5.71,101.5-7.42c6-2.41,5.61-11.63-1.6-11.79
			c-35.02-0.75-70.04-1.5-105.05-2.25c0.53,3.93,1.06,7.86,1.6,11.79c33.25-9.42,68.37-0.19,102.05-7.16
			c5.95-1.23,5.48-10.07,0-11.57c-16.22-4.46-33.21-2.91-49.82-2.93c-8.38-0.01-16.76-0.17-25.14-0.47
			c-4.51-0.16-9.02-0.37-13.52-0.62c-1.93-0.11-3.86-0.22-5.79-0.34c-1.77-0.11-5.41,0.35-6.96-0.56c0.92,1.2,1.84,2.39,2.76,3.59
			c-0.11-0.33-0.21-0.65-0.32-0.98C0,35.76-0.2,37.3-0.4,38.84c-0.74,1.16-0.28,1.27,1.38,0.32c1.21-0.31,2.44-0.54,3.68-0.71
			c2.08-0.28,4.19-0.32,6.28-0.35c4.72-0.08,9.45,0.09,14.16,0.24c9.03,0.28,18.05,0.72,27.08,0.89c8.99,0.17,18,0.11,26.97-0.63
			c7-0.57,18.16-0.24,23.15-6.1c2.91-3.42,1.91-8.66-2.65-10.03c-7.97-2.4-16.29-1.92-24.51-2.09c-8.76-0.19-17.51-0.67-26.23-1.45
			c-17.82-1.59-35.35-4.79-52.89-8.2c-7.57-1.47-10.54,9.06-3.19,11.57c0.31,0.11,0.62,0.21,0.92,0.32c-1.4-1.4-2.79-2.79-4.19-4.19
			c0.07-0.57,0.14-1.14,0.21-1.71c-2.14,3.58,0.04,7.48,3.59,8.81c8.07,3.03,16.34,5.9,25.09,5.73c8.54-0.17,17.13-2.12,25.62-3.01
			c17.9-1.88,35.89-2.52,53.88-2.05c7.84,0.2,7.55-11.27,0-12c-16.98-1.63-34.03-1.92-51.06-2.52c-8.34-0.29-16.69-0.67-25.01-1.35
			C13.82,9.68,4.35,9.62-3.29,6.89c1.2,0.92,2.39,1.84,3.59,2.76C0.14,9.39-0.02,9.14-0.17,8.88c-1.73,3.01-3.45,6.02-5.18,9.03
			c18.2-2.09,36.41-0.11,54.63,0.48c18.34,0.59,36.7-0.06,55.01-1.17c6.35-0.38,8.63-10.49,1.6-11.79
			C89.25,2.37,72.43,2.18,55.58,2.1c-8.16-0.04-16.32-0.09-24.46-0.56c-4.36-0.25-8.73-0.6-13.06-1.18C14.3-0.14,9.3-0.27,6.03-2.21
			c0,3.45,0,6.91,0,10.36c1.95-0.91,5.11-0.28,7.17-0.23c2.63,0.06,5.27,0.14,7.9,0.22c4.61,0.15,9.22,0.32,13.82,0.5
			C44.46,9.02,54,9.41,63.55,9.6c9.53,0.19,19.07,0.17,28.59-0.28c6.85-0.32,18.72,1.11,19.47-8.25c0.25-3.2-2.95-6.05-6-6
			c-11,0.18-21.99,0.36-32.99,0.54c-7.71,0.13-7.74,12.13,0,12c11-0.18,21.99-0.36,32.99-0.54c-2-2-4-4-6-6
			c-0.02,0.24-0.04,0.47-0.06,0.71c0.99-1.73,1.98-3.45,2.97-5.18c-1.12,0.83-5.05,0.43-6.44,0.51c-1.97,0.12-3.94,0.22-5.91,0.3
			c-4.6,0.19-9.2,0.28-13.8,0.3c-8.55,0.04-17.11-0.17-25.65-0.46c-8.56-0.29-17.11-0.67-25.67-0.97C16.96-4.01,7.5-5.72-0.03-2.21
			c-4.21,1.96-3.6,8.23,0,10.36c6.63,3.92,16.15,4.11,23.67,4.82c8.73,0.83,17.51,1.02,26.28,1.09c17.62,0.15,35.37-0.26,52.77,2.93
			c0.53-3.93,1.06-7.86,1.6-11.79C85.97,6.32,67.62,6.98,49.28,6.39C31.05,5.8,12.85,3.82-5.35,5.91c-4.28,0.49-7.79,4.79-5.18,9.03
			c2.45,3.99,6.46,4.18,10.74,4.85c4.33,0.68,8.68,1.25,13.03,1.73c9.25,1.02,18.55,1.56,27.84,1.94
			c18.96,0.78,37.94,0.92,56.85,2.74c0-4,0-8,0-12c-17.34-0.45-34.69,0.12-51.96,1.85c-8.05,0.81-16.04,2.24-24.09,2.99
			c-8.98,0.84-17.05-1.96-25.35-5.08c1.2,2.94,2.39,5.88,3.59,8.81c2.92-4.88,1.36-10.17-4.12-12.04
			c-1.06,3.86-2.13,7.71-3.19,11.57c17.31,3.37,34.64,6.51,52.21,8.26c8.72,0.87,17.46,1.44,26.22,1.71
			c8.34,0.26,17.14-0.67,25.21,1.76c-0.88-3.34-1.77-6.69-2.65-10.03c-2.12,2.49-9.57,2.13-12.75,2.42
			c-5.11,0.47-10.24,0.72-15.37,0.82c-9.66,0.19-19.33-0.15-28.98-0.51c-9.45-0.35-19.02-1.06-28.47-0.58
			c-6.05,0.31-19.75,1.02-19.82,9.64c-0.08,9.66,13.97,8.23,20.17,8.59c9.65,0.56,19.32,0.92,28.99,1.09
			c19.07,0.33,39.66-2.49,58.24,2.61c0-3.86,0-7.71,0-11.57C62.13,43.5,27.2,34.22-6.24,43.69c-6.55,1.86-5.19,11.64,1.6,11.79
			c35.02,0.75,70.04,1.5,105.05,2.25c-0.53-3.93-1.06-7.86-1.6-11.79C66.4,58.93,30.7,45.23-2.68,53.36
			c-5.41,1.32-6.02,10.71,0,11.57c31.07,4.43,62.25,4.41,93.32-0.07c-2.53-1.93-5.06-3.86-7.6-5.79c0.09,0.89,0.19,1.78,0.28,2.68
			c3.41-1.41,6.83-2.83,10.24-4.24c-2.55-3.18,1.8-11.91,2.49-15.38c1.14-5.74,1.68-11.61,1.88-17.45
			c0.19-5.62,0.81-12.1-0.27-17.64c-0.46-2.35-1.53-4.38-3.65-5.66c-0.66-0.4-1.6-0.75-2.35-0.97c-0.53-0.1-1.05-0.2-1.58-0.31
			c-0.9-0.22-0.72-0.08,0.55,0.4c-0.4,3.14-0.81,6.28-1.21,9.42c2.51-1.64,4.43-1.56,7.16-2.11c1.9,0.69,1.97,0.33,0.22-1.09
			c-0.9-1.85-1.5-1.87-1.79-0.06c-0.77,0.89-0.86,2.87-1.03,3.95c-0.94,5.81,0.51,11.43,2.88,16.72c1.12,2.5,2.82,4.82,3.85,7.34
			c1.15,2.84-0.41,3.77-2,6.35c-1.55,2.52-2.84,5.2-3.39,8.12c-0.27,1.46-0.32,2.84-0.31,4.32c0.05,0.64,0.1,1.29,0.15,1.93
			c-0.33,1.98-0.23,2.49,0.3,1.54c3.01,1.73,6.02,3.45,9.03,5.18c0.04-9.57,0.29-19.95,3.3-29.1c3.37-10.22,2.15-19.55-0.4-29.84
			c-1.4,2.46-2.79,4.92-4.19,7.38c2.78-0.73,4.74-1.93,6.94-3.7c-2.83,0-5.66,0-8.49,0c2.67,3.34,6.75,5.51,11.02,3.82
			c1.57-0.62,2.78-1.71,3.75-3.06c0.78-1.08,1.05-2.74,2.03-3.59c-3.34-1.95-6.69-3.89-10.03-5.84c-3.5,19.07,0.44,38.94-4.84,57.69
			c-1.35,4.81,3.04,8.03,7.38,7.38c1.5-0.23,4.19,1.44,5.63,1.76c2.27,0.51,4.26,0.4,6.53-0.04c3.65-0.7,5.68-5.77,3.59-8.81
			c-2.36-3.42-2.05-7.22-1.86-11.22c0.22-4.55,0.5-9.09,0.75-13.64c0.53-9.74,1.07-19.48,1.6-29.22
			C127.63-5.61,115.63-5.59,115.21,2.1L115.21,2.1z"/>
	</g>
</g>
<text transform="matrix(0.4853 0 0 1 12.9985 44.2471)" class="st0 st1 st2">DEBSWAP</text>
</svg>
